<?xml version="1.0" encoding="UTF-8" standalone="no"?>
<!DOCTYPE svg PUBLIC "-//W3C//DTD SVG 1.1//EN"
 "http://www.w3.org/Graphics/SVG/1.1/DTD/svg11.dtd">
<!-- Generated by graphviz version 14.1.3 (20260303.0454)
 -->
<!-- Title: system_architecture Pages: 1 -->
<svg width="623pt" height="194pt"
 viewBox="0.00 0.00 623.00 194.00" xmlns="http://www.w3.org/2000/svg" xmlns:xlink="http://www.w3.org/1999/xlink">
<g id="graph0" class="graph" transform="scale(1 1) rotate(0) translate(12.96 180.96)">
<title>system_architecture</title>
<polygon fill="white" stroke="none" points="-12.96,12.96 -12.96,-180.96 610.49,-180.96 610.49,12.96 -12.96,12.96"/>
<!-- admin -->
<g id="node1" class="node">
<title>admin</title>
<path fill="none" stroke="#111111" stroke-width="1.15" d="M287.65,-168C287.65,-168 227.62,-168 227.62,-168 221.62,-168 215.62,-162 215.62,-156 215.62,-156 215.62,-144 215.62,-144 215.62,-138 221.62,-132 227.62,-132 227.62,-132 287.65,-132 287.65,-132 293.65,-132 299.65,-138 299.65,-144 299.65,-144 299.65,-156 299.65,-156 299.65,-162 293.65,-168 287.65,-168"/>
<text xml:space="preserve" text-anchor="middle" x="257.64" y="-144.2" font-family="Helvetica,sans-Serif" font-size="14.00" fill="#111111">admin&#45;web</text>
</g>
<!-- app -->
<g id="node3" class="node">
<title>app</title>
<path fill="none" stroke="#111111" stroke-width="1.15" d="M339.28,-102C339.28,-102 268,-102 268,-102 262,-102 256,-96 256,-90 256,-90 256,-78 256,-78 256,-72 262,-66 268,-66 268,-66 339.28,-66 339.28,-66 345.28,-66 351.28,-72 351.28,-78 351.28,-78 351.28,-90 351.28,-90 351.28,-96 345.28,-102 339.28,-102"/>
<text xml:space="preserve" text-anchor="middle" x="303.64" y="-78.2" font-family="Helvetica,sans-Serif" font-size="14.00" fill="#111111">backend&#45;app</text>
</g>
<!-- admin&#45;&gt;app -->
<g id="edge1" class="edge">
<title>admin&#45;&gt;app</title>
<path fill="none" stroke="#111111" d="M277.83,-131.62C277.83,-122.46 277.83,-111.43 277.83,-102.29"/>
</g>
<!-- miniapp -->
<g id="node2" class="node">
<title>miniapp</title>
<path fill="none" stroke="#111111" stroke-width="1.15" d="M367.53,-168C367.53,-168 333.75,-168 333.75,-168 327.75,-168 321.75,-162 321.75,-156 321.75,-156 321.75,-144 321.75,-144 321.75,-138 327.75,-132 333.75,-132 333.75,-132 367.53,-132 367.53,-132 373.53,-132 379.53,-138 379.53,-144 379.53,-144 379.53,-156 379.53,-156 379.53,-162 373.53,-168 367.53,-168"/>
<text xml:space="preserve" text-anchor="middle" x="350.64" y="-144.2" font-family="Helvetica,sans-Serif" font-size="14.00" fill="#111111">uniapp</text>
</g>
<!-- miniapp&#45;&gt;app -->
<g id="edge2" class="edge">
<title>miniapp&#45;&gt;app</title>
<path fill="none" stroke="#111111" d="M336.51,-131.62C336.51,-122.46 336.51,-111.43 336.51,-102.29"/>
</g>
<!-- storage -->
<g id="node4" class="node">
<title>storage</title>
<path fill="none" stroke="#111111" stroke-width="1.15" d="M71.28,-36C71.28,-36 12,-36 12,-36 6,-36 0,-30 0,-24 0,-24 0,-12 0,-12 0,-6 6,0 12,0 12,0 71.28,0 71.28,0 77.28,0 83.28,-6 83.28,-12 83.28,-12 83.28,-24 83.28,-24 83.28,-30 77.28,-36 71.28,-36"/>
<text xml:space="preserve" text-anchor="middle" x="41.64" y="-12.2" font-family="Helvetica,sans-Serif" font-size="14.00" fill="#111111">file storage</text>
</g>
<!-- app&#45;&gt;storage -->
<g id="edge7" class="edge">
<title>app&#45;&gt;storage</title>
<path fill="none" stroke="#111111" d="M255.59,-90C179.95,-90 41.64,-90 41.64,-90 41.64,-90 41.64,-57.87 41.64,-36.54"/>
</g>
<!-- common -->
<g id="node5" class="node">
<title>common</title>
<path fill="none" stroke="#111111" stroke-width="1.15" d="M219.65,-36C219.65,-36 117.62,-36 117.62,-36 111.62,-36 105.62,-30 105.62,-24 105.62,-24 105.62,-12 105.62,-12 105.62,-6 111.62,0 117.62,0 117.62,0 219.65,0 219.65,0 225.65,0 231.65,-6 231.65,-12 231.65,-12 231.65,-24 231.65,-24 231.65,-30 225.65,-36 219.65,-36"/>
<text xml:space="preserve" text-anchor="middle" x="168.64" y="-12.2" font-family="Helvetica,sans-Serif" font-size="14.00" fill="#111111">backend&#45;common</text>
</g>
<!-- app&#45;&gt;common -->
<g id="edge3" class="edge">
<title>app&#45;&gt;common</title>
<path fill="none" stroke="#111111" d="M255.72,-78C238.68,-78 223.64,-78 223.64,-78 223.64,-78 223.64,-53.97 223.64,-36.33"/>
</g>
<!-- kyzz -->
<g id="node6" class="node">
<title>kyzz</title>
<path fill="none" stroke="#111111" stroke-width="1.15" d="M341.53,-36C341.53,-36 265.75,-36 265.75,-36 259.75,-36 253.75,-30 253.75,-24 253.75,-24 253.75,-12 253.75,-12 253.75,-6 259.75,0 265.75,0 265.75,0 341.53,0 341.53,0 347.53,0 353.53,-6 353.53,-12 353.53,-12 353.53,-24 353.53,-24 353.53,-30 347.53,-36 341.53,-36"/>
<text xml:space="preserve" text-anchor="middle" x="303.64" y="-12.2" font-family="Helvetica,sans-Serif" font-size="14.00" fill="#111111">backend&#45;kyzz</text>
</g>
<!-- app&#45;&gt;kyzz -->
<g id="edge4" class="edge">
<title>app&#45;&gt;kyzz</title>
<path fill="none" stroke="#111111" d="M303.64,-65.62C303.64,-56.46 303.64,-45.43 303.64,-36.29"/>
</g>
<!-- kyyy -->
<g id="node7" class="node">
<title>kyyy</title>
<path fill="none" stroke="#111111" stroke-width="1.15" d="M463.53,-36C463.53,-36 387.75,-36 387.75,-36 381.75,-36 375.75,-30 375.75,-24 375.75,-24 375.75,-12 375.75,-12 375.75,-6 381.75,0 387.75,0 387.75,0 463.53,0 463.53,0 469.53,0 475.53,-6 475.53,-12 475.53,-12 475.53,-24 475.53,-24 475.53,-30 469.53,-36 463.53,-36"/>
<text xml:space="preserve" text-anchor="middle" x="425.64" y="-12.2" font-family="Helvetica,sans-Serif" font-size="14.00" fill="#111111">backend&#45;kyyy</text>
</g>
<!-- app&#45;&gt;kyyy -->
<g id="edge5" class="edge">
<title>app&#45;&gt;kyyy</title>
<path fill="none" stroke="#111111" d="M351.54,-78C386.4,-78 427.53,-78 427.53,-78 427.53,-78 427.53,-53.97 427.53,-36.33"/>
</g>
<!-- kysx -->
<g id="node8" class="node">
<title>kysx</title>
<path fill="none" stroke="#111111" stroke-width="1.15" d="M585.53,-36C585.53,-36 509.75,-36 509.75,-36 503.75,-36 497.75,-30 497.75,-24 497.75,-24 497.75,-12 497.75,-12 497.75,-6 503.75,0 509.75,0 509.75,0 585.53,0 585.53,0 591.53,0 597.53,-6 597.53,-12 597.53,-12 597.53,-24 597.53,-24 597.53,-30 591.53,-36 585.53,-36"/>
<text xml:space="preserve" text-anchor="middle" x="547.64" y="-12.2" font-family="Helvetica,sans-Serif" font-size="14.00" fill="#111111">backend&#45;kysx</text>
</g>
<!-- app&#45;&gt;kysx -->
<g id="edge6" class="edge">
<title>app&#45;&gt;kysx</title>
<path fill="none" stroke="#111111" d="M351.85,-90C422.96,-90 547.64,-90 547.64,-90 547.64,-90 547.64,-57.87 547.64,-36.54"/>
</g>
</g>
</svg>
